<svg width="475" height="204" fill="none" xmlns="http://www.w3.org/2000/svg"><rect width="475" height="204" rx="27" fill="url(#a)"/><path d="M374.654 27.356c-7.392.642-15.322.654-21.916 1.433-3.559.44-6.881 1.761-10.132.625-5.953.076-14.315 1.309-18.759 3.418-1.656 1.904-17.635 2.88-5.176 3.565 4.407 1.092-9.72.04-2.607 3.013 3.582.336 6.348-1.531 8.701-.477 6.87-.931 4.314 7.565 4.809 9.15 6.319.135 1.655 2.171-.099 1.897 9.936 2.777-4.537 3.314-1.947 7.314-1.539 2.309.516 7.765 2.046 11.002 3.512.039 5.712 4.058 8.92 1.58 1.817-3.497 5.217-5.194 5.397-7.533.796-1.603 6.29-4.017 7.525-3.234 4.992-.058 7.294-6.505 12.078-4.925 5.19.025 17.315-6.027 4.992-3.638-.856-.685 3.974-3.462 6.314-1.25 4.957-.329-3.612-3.09-1.943-4.946 3.209 2.553 6.935-1.518 8.735-2.735 2.795.773 1.653-3.982 1.028-4.447 1.027-1.431 1.457-4.587 4.919-5.292 9.952-1.226.483-2.76-4.442-1.36-7.068 3.857.839-1.995-6.314-.477 7.577-1.548 4.499-.958-2.126-2.682l-.003-.001Zm-57.562.625c-7.215.172-13.324 1.892-20.815 2.131-4.934 2.101 15.971 1.804 3.708 2.463-2.686-.243 4.653 4.612-2.533 2.462-2.2-.267-13.838 4.55-6.791 3.785 5.858-1.562 9.099 2.913 13.288-1.36 5.236-1.108 7.599-6.475 13.437-4.152 3.58-2.833 14.013-2.222 13.986-4.3-4.737-.952-9.725-.313-14.28-1.029Zm-24.89 2.499c-7.034.94-8.034 4.156-2.092 3.675-9.075 1.57 4.225 2.023 7.121.184 3.188-1.955-.91-1.177-2.386-2.389-1.37.35-1.039-1.789-2.643-1.47Zm-19.089 3.124c-6.471 1.924 6.856 4.975 3.964.735-1.423.28-2.539-.936-3.964-.735Zm-9.728.624c-4.579 3.036 7.924.144 0 0Zm17.4.552c-2.919 3.026 7.497.274 0 0Zm-21.145.808c-5.982.807 1.369 1.992 0 0Zm3.781.11c-8.356.56-.966 3.087 0 0Zm4.956.368c-3.144 2.524 2.485 1.66 0 0Zm14.831.44c-7.627-.17 3.93 1.908 0 0Zm-29.735.038c-2.719.264-13.715 1.905-10.315 3.307 2.625-.53 11.268-.643 10.315-3.307Zm35.242.036c-5.326.344-.045 2.053 0 0Zm-8.187 1.213c-7.251 1.142 5.703.361.331 3.822 4.471 1.74 8.368-.899 13.766 1.103 10.045-2.45-3.56-3.438-6.901-2.683-2.06.368-2.163-2.793-7.195-2.242h-.001Zm-20.521.294c-2.319 4.67-8.97-1.618-13.693 2.793 1.793 1.163 6.752-1.19 3.561 1.69 2.907-.376 18.657-2.237 11.307-2.792.558-1.372.787-1.879-1.175-1.691Zm12.628.147c-8.466 2.757 4.903 4.58 2.533.11-.761 1.238-1.382-.627-2.533-.11Zm-5.69.147c-1.248 3.601 4.843 1.012 0 0Zm-2.019 2.021c-3.298.688 1.048 1.71.441.11l-.441-.11Zm13.105.184c-8.76.8 4.729 2.134 0 0Zm-41.813 1.617c-2.047 1.508-12.299 4.694-6.571 6.542 4.931-1.578 11.143-3.745 15.344-5.072-2.424-1.73-5.808-.518-8.773-1.47Zm42.217.772c-7.717.187-8.028 5.78-.807 2.61 1.896-1.432 6.715-2.437.807-2.61Zm8.444.367c-4.671.018-11.025 4.956-6.498 5.623-7.916.787 5.83 2.2 8.444 2.61 4.765-3.273 6.597 1.316 5.873 2.131 5.434-1.378 4.068 4.892-.697 4.998 1.031 3.828-10.33-.9-7.201 4.301 3.307-1.747 10.184-.88 7.568 2.13 3.312 1.408 11.791 3.697 5.276-1.28 2.945 2.583 8.757 1.61 5.553-2.688-3.85-6.526 4.314 1.202 6.572-1.177 5.181-2.842.389-3.455-1.983-5.255-7.274-1.467 3.318-2.39-2.349-5.44-4.801-1.304-8.762-5.205-13.767-2.682 2.339-1.892-5.352-4.392-8.48.22-.167 4.583-1.371-3.353 3.414-3.233-.47-.48-1.2.085-1.725-.258Zm-15.418.184c-6.695-.051-5.826 1.599-9.362 2.61 3.756 4.907 7.378-.51 9.582-1.691v-.772l-.221-.147h.001Zm-10.683.037c-6.556-.136 2.197 3.179 0 0Zm34.471.183c-1.748 3.775 11.087-.465.624 0h-.624Zm-40.014.883c-3.41 5.268-2.279.047-7.415.55-2.843.843-6.955-.92-11.38 2.683 3.265.982-4.638 2.496 3.23 1.912 11.174.972-13.793 1.406-.917 2.425-1.107 4.964 9.825-2.074 12.407.882 4.204.287 10.642-2.077 4.882-4.19 1.241-1.219 2.752-4.879-.807-4.263Zm15.896 2.682c-5.435.856-3.512 4.79-4.516 5.476 2.448.92-4.339 3.17-4.735 3.087 2.339-4.583-5.093 1.183-7.526-.33-3.056-.654-8.529-3.895-9.398-.956 7.047.149-4.596 2.444-7.122.882-8.576 1.317 3.081-3.06-4.441-2.462-5.184-2.812-10.97.009-12.991-2.46-1.698-.477-14.725 5.301-10.467 1.982 10.749-2.946-.16-1.295-4.846-.074-4.205 1.25-9.127-2.666-13.913-1.91-6.584-.453-11.668-2.813-18.281-.7-5.329.632-10.855 3.231-16.189 4.668 3.896 1.674.967 5.86-.734 3.97 1.006-1.815-12.213 1.656-7.196 2.351-5.378 2.477 10.424-.05 2.313 2.463-2.913 2.999-9.909 1.68-11.93 5.77-3.792 3.99 6.619 1.209-.588 5.329 2.945-.066 4.561.428 6.939.036 3.293.03-6.767 3.917-8.994 4.851-5.277.306-12.841 4.988-3.341 2.169 6.166-.886 11.043-4.611 17.291-5.88 3.427-2.873 7.461-4.22 11.857-6.505 5.042-.358-10.368 3.968-3.891 4.373 4.935.012 7.543-5.529 11.013-2.536 3.663-.042 10.412 2.582 10.426 4.998-4.151 5.682 3.009 2.072 3.157-.661.067 4.034.541 7.857-1.545 11.188 3.449-.958-.087 4.323 1.618 5.203 3.521 1.346 5.855 7.884 0 6.725-1.827-.729-3.027 9.092-7.342 10.989-3.49 4.296-3.678 9.648-2.936 14.517-.163 1.705.461 6.593 4.368 7.203 3.032 3.683 1.652 9.943 4.369 13.452-6.858 2.027 4.259 2.649 2.349 6.982.45 4.723 6.892 6.759 2.46 1.801-1.148-4.299-1.355-9.774-4.038-12.642-.969-8.819 5.053-1.505 4.515 3.565 3.566 2.817 2.018 7.791 7.122 10.878 3.427 3.759.219 7.479 2.129 10.327 2.324 3.711 7.9 4.251 11.674 7.276 5.592 2.72 10.22-2.87 13.216 5.146 4.601 2.029 8.781.164 10.756 5.145.735 5.634 3.559 2.764 4.783 7.193 3.665.973 7.364 5.198 8.102-.358 2.709-.602 6.286 6.176 4.038-.882-4.07-2.959-9.564 2.99-11.16-3.491-1.231-4.527 4.168-12.655-3.084-12.495-6.935 1.09-7.583-.487-4.331-6.358.332-.928 6.254-8.803-.147-6.542-4.857.087-4.838 5.544-7.384 7.136-3.805-.413-9.414.892-10.09-4.857-2.933-5.337 2.189-9.971 2.055-14.958.221-3.386 5.66-5.263 8.664-6.799 2.846-.241 9.158 4.537 8.553-.184.603-3.298 7.65 1.061 10.059-.294 4.812 1.542.696 9.804 5.433 11.466 4.541-3.99-2.104-12.023 2.717-16.243 3.32-3.015 7.265-4.403 10.205-8.232 3.949.237-.133-8.966 3.604-8.52-3.504 7.804 1.41 2.501 2.233-.006 3.129-2.666 5.933-6.23 10.903-5.218-1.446-2.315.494-6.009 5.213-6.762 1.314-.617 8.738-4.416 5.8-1.47-6.096 5.538 4.897.846 7.856-.478.081-1.879-7.583-2.202-5.25-6.432-4.269 1.362 8.075-4.211-1.505-2.83-5.537 2.42-8.983 2.746-1.358-.183 5.12-5.484 14.174 1.316 19.236-4.962 7.674-1.27 3.14-6.894.551-8.893-5.56-1.407-1.337-4.657-4.295-9.115-.734-5.297-5.657 6.208-9.325 1.287 3.675-5.043-1.767-7.066-6.461-6.873-4.942-2.46-7.506 7.298-8.333 8.232 4.121 6.93-8.585 5.254-7.966 10.842.104 6.891-8.574 5.155-4.993-.956 3.009-5.412-6.473-1.877-7.342-6.247-5.151-1.217-6.507.23-6.571-4.851-1.352-2.422 5.453-6.518 8.554-7.681 2.372-2.33 2.403-1.676 6.057-3.308 4.751 1.082 7.182-5.464 10.756-4.74 1.559.14 8.727-.009 6.975-4.043 6.225-1.132-3.14-4.263-4.736-.405-4.616 4.735-5.179.866-4.919-1.029-3.3 2.606-2.369-1.375-1.872-3.344.772-1.158-1.078-1.674-1.836-1.8l-.001-.003Zm57.819 2.83c-5.33 2.864 7.087 2.188.844.33l-.844-.33Zm-65.896.882c-9.455 2.41 5.871 3.799.184 0h-.184Zm28.818.772c-4.164.87-.49 2.575 0 0Zm-154.771.919.184.073-.184-.073Zm156.791 1.47c-9.432 3.489 5.856 1.86 0 0Zm1.909.367c-.708 2.873 3.811-.113 0 0Zm-18.796 4.594c-4.214 1.66-9.469 6.467-2.789 4.961 2.767-2.456 10.072 2.504 5.469-2.535-.795-1.206-2.73-1.018-2.68-2.426Zm9.178 4.19c-.581 1.755 2.27 1.053 0 0Zm-1.799.404c-2.439 1.543 2.677 1.18 0 0Zm-8.113 1.286c-8.259 2.55 3.869 2.058 0 0Zm3.782 1.286c-3.643 2.196 2.409 1.47 0 0Zm23.384 1.176c-2.501 1.846 1.992 1.034 0 0Zm-168.315 3.088c-6.068 1.348 3.291 2.22 0 0Zm18.172 3.969c-4.756 1.916 3.719 1.252 0 0Zm-2.386 1.36c-4.691 3.232 4.271.408 0 0Zm31.46 2.058c-6.096 1.868 3.832 2.021 0 0Zm91.702.698c-5.737 3.048 4.115.815 0 0Zm-92.73 1.176c-4.33 4.285 2.7 4.478 0 0Zm-55.139 2.205c-6.451 1.531 1.33 2.572 0 0Zm53.303.514c-.603.56.943.571 0 0Zm-60.866 1.911c-4.822 2.887 2.746 1.844 0 0Zm59.507.074c-5.757 3.468 6.777-.035 0 0Zm-62.848.882c-3.323 1.647 1.41 1.748 0 0Zm151.387.662c-3.992 1.803 3.768 1.217 0 0Zm-88.618.404c-2.957.06.528 4.739.147.183l-.147-.183Zm132.227 3.454c-3.252 1.132-13.7 10.15-6.35 9.151 5.796-1.003 1.218 3.519 6.748.027-.507 5.084 4.201-1.37 1.621-1.534 1.236-4.784-3.005-2.151-4.258-4.667.286-.992 3.398-1.906 2.239-2.977ZM179.605 91.45c-.574 4.459 9.364 8.409 4.148 1.544-1.645-.478-2.358-1.644-4.148-1.544Zm114.059 2.021c1.811 4.656 7.057.182 0 0Zm-41.373 2.94c.217-.052.561.533 0 0Zm44.567 2.279c-2.099 1.379.527 1.408 0 0Zm-5.103 1.47c-.32 4.265 6.599 1.422.331.037l-.331-.037Zm6.498.037c-6.29 4.032 3.194 4.383 0 0Zm-40.381 4.446.036.368-.036-.368Zm2.312 4.999c.253.193-.197.203 0 0Zm-17.363 46.306c-7.534 1.815-4.738 4.93.147 1.102 1.249 2.183 5.028 1.246 6.791 4.117 3.148 5.209 12.103.873 3.965-.662-4.066-1.987-6.164-5.017-10.903-4.557Zm-1.615 2.866c-3.645 1.545 3.21 1.763 0 0Zm20.815 4.705c-5.672-.56 3.435 5.125-4.81 3.197 3.691 3.656 7.612-.057 11.454 1.102 3.399-2.22-4.683-4.433-6.644-4.299Zm10.205 3.123c-1.136 3.96 7.31-.243 0 0Zm2.019 1.691c-.263.193.91-.061 0 0Zm-24.339-1.397c-.346 3.811 7.097-.137 0 0Z" fill="url(#b)"/><defs><radialGradient id="b" cx="0" cy="0" r="1" gradientUnits="userSpaceOnUse" gradientTransform="matrix(0 82.6439 -138.912 0 253 110)"><stop stop-color="#fff"/><stop offset="1" stop-color="#fff" stop-opacity="0"/></radialGradient><linearGradient id="a" x1="22.466" y1="6.432" x2="156.17" y2="320.834" gradientUnits="userSpaceOnUse"><stop stop-color="#7DC4F4"/><stop offset="1" stop-color="#56D7BF"/></linearGradient></defs></svg>