<svg width="475" height="204" fill="none" xmlns="http://www.w3.org/2000/svg"><rect width="475" height="204" rx="27" fill="url(#a)"/><g clip-path="url(#b)"><path d="M222.961 108.5c-9.281.307-16.872 4.235-22.773 11.786h-11.516c-4.698 0-8.651-1.243-11.86-3.729-3.208-2.486-4.812-6.123-4.812-10.911 0-21.669 3.552-32.503 10.656-32.503.344 0 1.59.644 3.739 1.933 2.148 1.29 4.941 2.594 8.378 3.914 3.438 1.32 6.847 1.98 10.227 1.98 3.839 0 7.648-.707 11.43-2.118-.287 2.27-.43 4.296-.43 6.077 0 8.532 2.32 16.389 6.961 23.571ZM315 167.152c0 7.366-2.091 13.183-6.273 17.449-4.183 4.266-9.74 6.399-16.672 6.399h-75.11c-6.932 0-12.489-2.133-16.672-6.399-4.182-4.266-6.273-10.083-6.273-17.449 0-3.253.1-6.43.301-9.53.2-3.099.601-6.445 1.203-10.036.601-3.591 1.361-6.921 2.277-9.99a49.114 49.114 0 0 1 3.696-8.977c1.546-2.916 3.322-5.402 5.328-7.459 2.005-2.056 4.454-3.698 7.347-4.926 2.894-1.227 6.088-1.841 9.582-1.841.573 0 1.805.66 3.696 1.979 1.89 1.32 3.981 2.793 6.273 4.42 2.292 1.627 5.357 3.1 9.195 4.42 3.839 1.32 7.706 1.979 11.602 1.979s7.763-.659 11.602-1.979c3.838-1.32 6.903-2.793 9.195-4.42 2.292-1.627 4.383-3.1 6.273-4.42 1.891-1.319 3.123-1.979 3.696-1.979 3.494 0 6.688.614 9.582 1.841 2.893 1.228 5.342 2.87 7.347 4.926 2.006 2.057 3.782 4.543 5.328 7.459a49.114 49.114 0 0 1 3.696 8.977c.916 3.069 1.676 6.399 2.277 9.99.602 3.591 1.003 6.937 1.203 10.036.201 3.1.301 6.277.301 9.53Zm-88-117.58c0 6.506-2.148 12.061-6.445 16.665-4.297 4.604-9.482 6.906-15.555 6.906s-11.258-2.302-15.555-6.906C185.148 61.633 183 56.078 183 49.571c0-6.506 2.148-12.061 6.445-16.665C193.742 28.302 198.927 26 205 26s11.258 2.302 15.555 6.906C224.852 37.51 227 43.065 227 49.57Zm60.5 35.357c0 9.76-3.223 18.092-9.668 24.998-6.445 6.906-14.223 10.359-23.332 10.359s-16.887-3.453-23.332-10.359c-6.445-6.906-9.668-15.238-9.668-24.998 0-9.76 3.223-18.093 9.668-24.999 6.445-6.906 14.223-10.359 23.332-10.359s16.887 3.453 23.332 10.359c6.445 6.906 9.668 15.238 9.668 24.999Zm49.5 20.717c0 4.788-1.604 8.425-4.812 10.911-3.209 2.486-7.162 3.729-11.86 3.729h-11.516c-5.901-7.551-13.492-11.479-22.773-11.786C290.68 101.318 293 93.46 293 84.929c0-1.78-.143-3.806-.43-6.077 3.782 1.411 7.591 2.117 11.43 2.117 3.38 0 6.789-.66 10.227-1.98 3.437-1.32 6.23-2.624 8.378-3.913 2.149-1.289 3.395-1.933 3.739-1.933 7.104 0 10.656 10.834 10.656 32.503Zm-11-56.075c0 6.507-2.148 12.062-6.445 16.666-4.297 4.604-9.482 6.906-15.555 6.906s-11.258-2.302-15.555-6.906C284.148 61.633 282 56.078 282 49.571c0-6.506 2.148-12.061 6.445-16.665C292.742 28.302 297.927 26 304 26s11.258 2.302 15.555 6.906C323.852 37.51 326 43.065 326 49.57Z" fill="url(#c)"/></g><defs><radialGradient id="c" cx="0" cy="0" r="1" gradientUnits="userSpaceOnUse" gradientTransform="rotate(90 73 181.5) scale(82.5)"><stop stop-color="#fff"/><stop offset="1" stop-color="#fff" stop-opacity="0"/></radialGradient><linearGradient id="a" x1="22.466" y1="6.432" x2="156.17" y2="320.834" gradientUnits="userSpaceOnUse"><stop stop-color="#B2E3F5"/><stop offset="1" stop-color="#6DC7E4"/></linearGradient><clipPath id="b"><path fill="#fff" transform="translate(172 26)" d="M0 0h165v165H0z"/></clipPath></defs></svg>